<?xml version="1.0" encoding="UTF-8"?>
<svg version="1.1" xmlns="http://www.w3.org/2000/svg" width="1536" height="407">
<path d="M0 0 C3.6017921 1.15954546 7.21140347 2.29384145 10.82067871 3.42984009 C12.78571851 4.04839131 14.75039201 4.66810723 16.71472168 5.28890991 C29.42681263 9.300502 42.18766386 13.15176705 54.94543457 17.01501465 C57.36994371 17.75043018 59.79442313 18.48594365 62.21887207 19.22155762 C73.42664979 22.62041905 84.63860039 26.00426528 95.86315918 29.34729004 C101.3117942 30.97165426 106.75565965 32.61123457 112.19543457 34.26501465 C113.15014648 34.55408691 114.1048584 34.84315918 115.08850098 35.14099121 C117.69212955 35.93683627 120.28846234 36.75238311 122.88293457 37.57751465 C123.60335938 37.79625244 124.32378418 38.01499023 125.06604004 38.24035645 C129.05565349 39.54313824 131.12510428 40.6009338 133.19543457 44.26501465 C133.5757513 47.40873146 133.5757513 47.40873146 133.58311462 51.19265747 C133.59119293 52.23841558 133.59119293 52.23841558 133.59943444 53.30530012 C133.61374271 55.64182328 133.60660307 57.97778214 133.5994873 60.31433105 C133.60519007 61.9901322 133.61215397 63.66592946 133.62028503 65.34172058 C133.63826002 69.8983879 133.63703773 74.45486304 133.63134265 79.01155519 C133.62825136 82.82505214 133.63434389 86.63851215 133.6403814 90.45200384 C133.65444458 99.46522613 133.65285566 108.47835372 133.64147949 117.49157715 C133.63004771 126.75269139 133.64398619 136.01351436 133.67087597 145.27459013 C133.69314703 153.24688129 133.69964333 161.21908183 133.69379956 169.19140184 C133.69044967 173.94275198 133.69271023 178.69391635 133.71005058 183.44524002 C133.72569578 187.92857319 133.72137286 192.4114827 133.70274544 196.89480019 C133.69910487 198.52560033 133.7020326 200.15643306 133.71263123 201.78720284 C133.94199391 240.05323013 113.67267504 270.48057574 87.63293457 297.07751465 C82.43139525 302.1744253 76.90460798 306.75292599 71.19543457 311.26501465 C70.41941895 311.90825684 69.64340332 312.55149902 68.84387207 313.2142334 C55.95191498 323.84255254 41.77795601 332.52604238 27.39855957 340.96813965 C25.53266034 342.06650586 23.67554058 343.17976566 21.82043457 344.29626465 C15.07837032 348.32684654 8.15204606 351.88383471 1.10168457 355.33532715 C-1.36173906 356.54172982 -3.78554159 357.78475202 -6.21081543 359.06970215 C-14.19624996 363.28423704 -19.58420889 365.32996128 -28.6229248 362.94763184 C-32.38844779 361.76943105 -35.88592891 360.11150146 -39.42956543 358.39001465 C-40.24586426 357.99709229 -41.06216309 357.60416992 -41.90319824 357.19934082 C-66.05718673 345.42164401 -89.75709739 332.03750532 -110.80456543 315.26501465 C-111.78296387 314.49802246 -112.7613623 313.73103027 -113.76940918 312.9407959 C-121.10994176 307.0746888 -127.99004992 300.72657794 -134.80456543 294.26501465 C-135.57026855 293.54185059 -136.33597168 292.81868652 -137.12487793 292.0736084 C-150.78415862 278.81607125 -162.8922194 261.74643849 -170.42956543 244.26501465 C-170.84565063 243.33338501 -170.84565063 243.33338501 -171.2701416 242.38293457 C-176.97674566 228.57237752 -178.40416235 214.18458277 -178.3380127 199.42004395 C-178.34509491 197.72108215 -178.35384944 196.02212666 -178.36412048 194.32318115 C-178.38634163 189.77229731 -178.38374353 185.22176554 -178.37479901 180.67084861 C-178.36964527 176.85789972 -178.37701517 173.04501449 -178.38427109 169.23207217 C-178.40117595 160.24405277 -178.39779153 151.25620363 -178.38098145 142.26818848 C-178.36398382 133.00646012 -178.38002021 123.74520049 -178.41220433 114.48352307 C-178.4388773 106.50434414 -178.44618498 98.52531136 -178.43768924 90.54609233 C-178.43276385 85.79141687 -178.43495799 81.03702471 -178.45547676 76.28238487 C-178.47380371 71.82425833 -178.46791239 67.36681172 -178.44327736 62.90872192 C-178.43826413 61.27406467 -178.44177257 59.63935573 -178.45442581 58.00473976 C-178.47033432 55.77334609 -178.45543219 53.54419928 -178.43275452 51.31291199 C-178.43216821 50.0651382 -178.4315819 48.81736441 -178.43097782 47.53177929 C-177.63094695 43.35958764 -176.05966731 41.90628712 -172.80456543 39.26501465 C-169.90026855 37.91320801 -169.90026855 37.91320801 -166.58581543 36.8548584 C-165.96080139 36.65031036 -165.33578735 36.44576233 -164.6918335 36.23501587 C-162.5670575 35.54331249 -160.43601129 34.87335777 -158.30456543 34.20251465 C-156.74840023 33.7000765 -155.19275441 33.19602752 -153.63757324 32.69055176 C-150.08410612 31.53753454 -146.52806649 30.39287541 -142.97058105 29.25231934 C-136.05597437 27.03010975 -129.15658623 24.76199498 -122.25769043 22.49157715 C-119.66664998 21.63912788 -117.07558021 20.78676776 -114.48449707 19.93444824 C-113.8333899 19.72025049 -113.18228273 19.50605274 -112.51144505 19.28536415 C-104.6139868 16.68806197 -96.71216212 14.10411597 -88.8103466 11.52010727 C-81.25960944 9.05088852 -73.70999022 6.5783612 -66.16293335 4.09791565 C-62.41947001 2.86830711 -58.6748794 1.64216295 -54.92993164 0.41708374 C-53.24055934 -0.13633757 -51.55166328 -0.69121504 -49.86328125 -1.24765015 C-47.57547189 -2.00135681 -45.285981 -2.74971328 -42.99597168 -3.4967041 C-42.02069267 -3.82018829 -42.02069267 -3.82018829 -41.02571106 -4.15020752 C-26.71653393 -8.78924767 -13.76870433 -4.43447096 0 0 Z M-37.53112793 36.3939209 C-38.27722321 36.61858536 -39.02331848 36.84324982 -39.79202271 37.07472229 C-47.21400499 39.33742218 -54.54798116 41.84507679 -61.87380981 44.39907837 C-73.38481077 48.41006536 -84.92133163 52.33303958 -96.51940918 56.08532715 C-97.48993225 56.39940018 -98.46045532 56.71347321 -99.46038818 57.0370636 C-104.18823836 58.56454684 -108.91861759 60.08376604 -113.6517334 61.59484863 C-115.38629353 62.15280317 -117.12083234 62.71082401 -118.85534668 63.2689209 C-119.62885971 63.5132486 -120.40237274 63.75757629 -121.19932556 64.00930786 C-130.73551474 66.84401723 -130.73551474 66.84401723 -138.80456543 72.26501465 C-139.01922482 75.26141691 -139.10868771 78.16646144 -139.11096191 81.16516113 C-139.11928543 82.08722351 -139.12760895 83.00928589 -139.13618469 83.95928955 C-139.16035156 87.01827165 -139.16906452 90.07704086 -139.17565918 93.1361084 C-139.18461969 95.25598721 -139.19374142 97.37586535 -139.20301819 99.4957428 C-139.21952843 103.94367004 -139.22721213 108.39152183 -139.23010254 112.83947754 C-139.23549156 118.54757326 -139.27318471 124.25496304 -139.3188467 129.96285915 C-139.34854226 134.34225576 -139.35582445 138.72148075 -139.35682869 143.10096931 C-139.36104514 145.20579325 -139.37353605 147.31061705 -139.39434624 149.41534233 C-139.421108 152.35591921 -139.4164809 155.29483848 -139.40393066 158.23547363 C-139.41876495 159.10986588 -139.43359924 159.98425812 -139.44888306 160.88514709 C-139.42158873 163.12316909 -139.35765727 165.09641564 -138.80456543 167.26501465 C-136.57591978 169.37942811 -136.57591978 169.37942811 -133.80456543 170.26501465 C-132.299021 170.84702637 -132.299021 170.84702637 -130.76306152 171.4407959 C-129.62949219 171.81591309 -128.49592285 172.19103027 -127.32800293 172.57751465 C-126.69730896 172.78766708 -126.06661499 172.99781952 -125.41680908 173.21434021 C-123.33974328 173.9041676 -121.25979482 174.58479262 -119.17956543 175.26501465 C-117.71968481 175.74726841 -116.25988807 176.22977616 -114.8001709 176.71252441 C-102.42286059 180.79141648 -89.99429745 184.70910001 -77.54431152 188.55993652 C-76.15442423 188.99133207 -74.76461089 189.42296594 -73.37487793 189.8548584 C-72.71575409 190.05872162 -72.05663025 190.26258484 -71.37753296 190.47262573 C-66.50940488 191.99605513 -61.75871696 193.74430287 -57.0345459 195.66564941 C-54.49761856 196.3475146 -53.24262017 196.17412531 -50.80456543 195.26501465 C-49.37758321 194.35371052 -47.98314085 193.39031031 -46.61706543 192.39001465 C-42.19717598 189.35361613 -37.96604566 187.62919285 -32.80456543 186.26501465 C-32.00019043 186.03813965 -31.19581543 185.81126465 -30.36706543 185.57751465 C-18.67837537 184.15206464 -8.04361177 186.51718636 2.19543457 192.26501465 C3.52594511 192.93729726 4.85860182 193.60539323 6.19543457 194.26501465 C6.19543457 194.92501465 6.19543457 195.58501465 6.19543457 196.26501465 C6.93793457 197.00751465 7.68043457 197.75001465 8.44543457 198.51501465 C16.29703003 206.36661011 19.35037378 216.22306932 19.69543457 227.26501465 C19.27017158 239.23882564 15.5445095 249.53960412 7.19543457 258.26501465 C3.71707574 261.02947451 0.13808088 263.22671892 -3.80456543 265.26501465 C-4.78876465 265.78708496 -4.78876465 265.78708496 -5.79284668 266.31970215 C-15.13774121 270.52190312 -27.15464906 270.1905549 -36.80456543 267.26501465 C-47.91225076 263.01065529 -55.72402707 256.04022239 -60.80456543 245.26501465 C-61.01922455 244.42398193 -61.23388367 243.58294922 -61.45504761 242.71643066 C-62.99678886 236.97087119 -62.99678886 236.97087119 -66.90759277 232.72052002 C-69.62075212 231.56802345 -72.29899702 230.72164351 -75.14050293 229.93688965 C-76.17027252 229.61391907 -77.20004211 229.29094849 -78.26101685 228.95819092 C-81.55601608 227.93508358 -84.8654976 226.97432462 -88.17956543 226.01501465 C-90.33706722 225.35765082 -92.49333577 224.69622499 -94.64831543 224.03063965 C-98.91601067 222.71851086 -103.19015121 221.43204704 -107.47155762 220.16540527 C-114.69419763 218.01824682 -121.86390853 215.71152952 -129.02218628 213.35943604 C-129.87285675 213.08367737 -130.72352722 212.8079187 -131.59997559 212.52380371 C-132.34284821 212.27986877 -133.08572083 212.03593384 -133.85110474 211.78460693 C-135.95086776 211.13649062 -135.95086776 211.13649062 -138.80456543 211.26501465 C-138.2929219 217.0273999 -137.17651353 221.68889242 -134.80456543 226.95251465 C-134.49696289 227.64240479 -134.18936035 228.33229492 -133.87243652 229.04309082 C-130.6300432 236.04462886 -126.4951655 242.13299078 -121.80456543 248.26501465 C-121.11749512 249.17509277 -120.4304248 250.0851709 -119.72253418 251.02282715 C-110.52667516 262.72664772 -99.66153797 273.28565552 -87.80456543 282.26501465 C-87.17630859 282.7426123 -86.54805176 283.22020996 -85.90075684 283.71228027 C-71.3431981 294.70660867 -55.88663666 303.91737211 -39.99206543 312.82751465 C-38.90828613 313.43599243 -38.90828613 313.43599243 -37.8026123 314.0567627 C-35.81668789 315.15438219 -33.8178687 316.21858962 -31.80456543 317.26501465 C-31.20466797 317.58711914 -30.60477051 317.90922363 -29.98669434 318.24108887 C-25.52499438 320.4353472 -22.57912438 320.48517971 -17.80456543 319.26501465 C-15.28688324 318.21877783 -12.95691558 317.14949919 -10.55456543 315.89001465 C-9.53507812 315.36697754 -9.53507812 315.36697754 -8.49499512 314.83337402 C4.49346071 308.07773214 17.22912845 300.70808475 29.19543457 292.26501465 C30.0525 291.6627002 30.0525 291.6627002 30.92687988 291.04821777 C57.45201083 272.31299517 85.89411692 248.137116 94.19543457 215.26501465 C94.58219923 211.7787785 94.59419815 208.33629537 94.55871582 204.8314209 C94.55921432 203.8722728 94.55971283 202.91312469 94.56022644 201.9249115 C94.55790181 199.91561795 94.54826949 197.9063206 94.53161621 195.89709473 C94.50781326 192.81179107 94.5110934 189.72734123 94.5177002 186.64196777 C94.51212952 184.68428031 94.5050235 182.72659648 94.49621582 180.7689209 C94.49758293 179.38308556 94.49758293 179.38308556 94.49897766 177.96925354 C94.48944565 177.11754074 94.47991364 176.26582794 94.47009277 175.38830566 C94.46548538 174.63823746 94.46087799 173.88816925 94.45613098 173.1153717 C94.34988835 171.01844062 94.34988835 171.01844062 92.19543457 169.26501465 C90.2081751 168.43194587 90.2081751 168.43194587 87.8704834 167.72790527 C86.96862305 167.43967392 86.0667627 167.15144257 85.13757324 166.85447693 C84.15248779 166.54651688 83.16740234 166.23855682 82.15246582 165.92126465 C80.61622559 165.43279808 80.61622559 165.43279808 79.0489502 164.9344635 C75.70375663 163.87216535 72.35592511 162.81846115 69.00793457 161.76501465 C66.7202317 161.04091316 64.43271567 160.31622109 62.14538574 159.59094238 C58.71877355 158.5044177 55.29205097 157.41826479 51.86457825 156.3344574 C45.30835913 154.25992031 38.76127638 152.16058745 32.22668457 150.0189209 C31.50365646 149.78252899 30.78062836 149.54613708 30.03569031 149.30258179 C26.78775822 148.24023571 23.54172261 147.17287771 20.29821777 146.0970459 C11.19013041 142.57074372 11.19013041 142.57074372 1.85949707 143.15563965 C1.18660645 143.6042334 0.51371582 144.05282715 -0.17956543 144.51501465 C-10.81503982 150.8998563 -21.64082968 151.69498642 -33.80847168 149.79626465 C-42.13142826 147.60806949 -49.09901784 142.62262482 -54.80456543 136.26501465 C-55.48519043 135.54313965 -56.16581543 134.82126465 -56.86706543 134.07751465 C-63.89569994 123.8746581 -64.81214211 112.28180794 -63.80456543 100.26501465 C-61.52947587 88.6035556 -55.23235073 80.25580639 -45.80456543 73.26501465 C-35.51532005 66.83924078 -23.82972692 65.78771861 -11.96472168 67.7298584 C-1.00636243 70.65554989 7.78454792 76.93356817 13.62902832 86.64782715 C17.08413242 93.18894411 17.08413242 93.18894411 17.43737793 96.60412598 C17.90534648 99.69815921 18.47566797 101.63027473 20.19543457 104.26501465 C25.2548945 107.15774616 30.67835985 108.61132372 36.25793457 110.20251465 C37.86788503 110.69362903 39.47660185 111.18880433 41.08410645 111.68786621 C44.42332861 112.71979542 47.76795203 113.73054189 51.11779785 114.72741699 C56.10896168 116.22360538 61.05897033 117.83068093 66.00402832 119.4720459 C66.7833522 119.72989365 67.56267609 119.98774139 68.36561584 120.25340271 C69.89684522 120.76014636 71.42800015 121.267115 72.95907593 121.77432251 C73.69707428 122.01875092 74.43507263 122.26317932 75.19543457 122.51501465 C75.92803497 122.75775116 76.66063538 123.00048767 77.41543579 123.25057983 C79.48596948 123.93347415 81.55898494 124.60820258 83.63293457 125.28063965 C84.80727051 125.66510254 85.98160645 126.04956543 87.19152832 126.44567871 C90.31966536 127.44044394 90.31966536 127.44044394 94.19543457 127.26501465 C94.29677493 119.64794261 94.36687518 112.03104412 94.41516113 104.41345215 C94.43528833 101.82158919 94.46259273 99.22977169 94.49719238 96.63806152 C94.54565958 92.91464016 94.56839273 89.19181866 94.58605957 85.46813965 C94.60670471 84.30760071 94.62734985 83.14706177 94.64862061 81.95135498 C94.64892273 80.8705365 94.64922485 79.78971802 94.64953613 78.67614746 C94.65841858 77.72572571 94.66730103 76.77530396 94.67645264 75.79608154 C94.04118538 72.45337151 92.84991116 71.34248089 90.19543457 69.26501465 C87.97693302 68.18528301 87.97693302 68.18528301 85.5177002 67.50427246 C84.58284286 67.21529587 83.64798553 66.92631927 82.68479919 66.62858582 C81.66737137 66.32813858 80.64994354 66.02769135 79.60168457 65.71813965 C78.52661148 65.38953445 77.45153839 65.06092926 76.34388733 64.72236633 C72.79787871 63.64141097 69.24679578 62.57823913 65.69543457 61.51501465 C63.2333867 60.76813115 60.77172086 60.01998722 58.3104248 59.27062988 C53.84319496 57.91169853 49.37492891 56.55634201 44.90494061 55.20652294 C36.68077039 52.72239412 28.46894242 50.19956707 20.26184082 47.6595459 C19.07460419 47.29237457 17.88736755 46.92520325 16.66415405 46.54690552 C12.07156116 45.12641664 7.47908753 43.70554321 2.88684082 42.28393555 C-0.26874605 41.3080159 -3.42520551 40.33497111 -6.58190918 39.3626709 C-7.50354355 39.07696732 -8.42517792 38.79126373 -9.3747406 38.49690247 C-19.55684186 35.36626007 -27.0618725 33.177481 -37.53112793 36.3939209 Z " fill="#00C98F" transform="translate(234.8045654296875,20.7349853515625)"/>
<path d="M0 0 C4.57234201 2.28617101 6.30240592 4.93426737 9 9.0625 C9.9793653 10.52417745 10.95987215 11.98509054 11.94140625 13.4453125 C12.44559082 14.19973633 12.94977539 14.95416016 13.46923828 15.73144531 C15.90363357 19.33916477 18.41867003 22.88844588 20.9375 26.4375 C21.94797934 27.86453896 22.9583957 29.29162251 23.96875 30.71875 C24.72091797 31.78029297 24.72091797 31.78029297 25.48828125 32.86328125 C26.98534073 34.97928005 28.47783187 37.09842052 29.96875 39.21875 C35.07402607 46.47560734 40.22151015 53.69725443 45.4375 60.875 C50.4637856 67.79692189 55.32203954 74.81937546 60.12695312 81.89624023 C64.3267378 88.06294087 68.66021173 94.12135625 73.05029297 100.15356445 C77.14258427 105.78553579 81.14716834 111.47422314 85.125 117.1875 C90.95413996 125.55598694 96.92080535 133.81169701 103 142 C110.05938596 132.56032775 117.02452303 123.0802794 123.625 113.3125 C128.09425493 106.70316214 132.72675244 100.26494648 137.5534668 93.9128418 C141.63746733 88.52545111 145.55014619 83.03126532 149.42993164 77.49560547 C153.07546432 72.29751032 156.77318427 67.14009163 160.5 62 C164.70704075 56.19447116 168.87609045 50.364874 173 44.5 C177.65305694 37.88259184 182.36612338 31.31132019 187.12255859 24.76782227 C189.91844089 20.91368546 192.6777374 17.03962397 195.3828125 13.12109375 C195.92744141 12.33541016 196.47207031 11.54972656 197.03320312 10.74023438 C198.07235865 9.23696522 199.10521797 7.72931863 200.13085938 6.21679688 C200.59556641 5.54583984 201.06027344 4.87488281 201.5390625 4.18359375 C201.94334473 3.59118896 202.34762695 2.99878418 202.76416016 2.38842773 C204 1 204 1 207 0 C207 70.29 207 140.58 207 213 C195.78 213 184.56 213 173 213 C172.67 175.71 172.34 138.42 172 100 C168.37 105.28 164.74 110.56 161 116 C159.02792301 118.81826021 157.05353373 121.63289379 155.0625 124.4375 C154.05335725 125.86326132 153.04424353 127.28904317 152.03515625 128.71484375 C151.53387207 129.42237793 151.03258789 130.12991211 150.51611328 130.85888672 C148.00656077 134.40297296 145.50359782 137.9517061 143 141.5 C142.00003196 142.91668922 141.00003195 144.33335588 140 145.75 C139.505 146.45125 139.01 147.1525 138.5 147.875 C134 154.25 134 154.25 132.49926758 156.37597656 C131.50163226 157.78933387 130.50407338 159.20274513 129.5065918 160.61621094 C126.97104354 164.20896231 124.43407776 167.80069847 121.89453125 171.390625 C115.88129067 179.89422625 109.90734632 188.42241381 104 197 C101.65976229 196.61715363 100.32757813 196.33706112 98.65063477 194.61157227 C98.05206665 193.72296509 98.05206665 193.72296509 97.44140625 192.81640625 C96.98008301 192.14561035 96.51875977 191.47481445 96.04345703 190.78369141 C95.55474121 190.05069824 95.06602539 189.31770508 94.5625 188.5625 C93.48934619 186.99796691 92.41509156 185.43418844 91.33984375 183.87109375 C90.78796387 183.06269043 90.23608398 182.25428711 89.66748047 181.42138672 C87.04516221 177.6134581 84.33859131 173.86818412 81.625 170.125 C80.81869141 169.00919556 80.81869141 169.00919556 79.99609375 167.87084961 C76.63125764 163.22277106 73.23162125 158.60163417 69.81542969 153.99121094 C63.31309865 145.21396965 56.97440935 136.33811658 50.7421875 127.3671875 C45.52771599 119.88839433 40.25772734 112.44844706 35 105 C34.67 140.64 34.34 176.28 34 213 C22.78 213 11.56 213 0 213 C0 142.71 0 72.42 0 0 Z " fill="#013A51" transform="translate(814,79)"/>
<path d="M0 0 C21.47338962 17.61889908 37.29527938 42.03851582 40.53515625 70.04296875 C43.35857713 100.36573549 35.73604448 127.032156 17.1953125 151.10546875 C16.64488281 151.89308594 16.09445312 152.68070313 15.52734375 153.4921875 C15.08777344 154.02457031 14.64820313 154.55695313 14.1953125 155.10546875 C13.5353125 155.10546875 12.8753125 155.10546875 12.1953125 155.10546875 C12.1953125 155.76546875 12.1953125 156.42546875 12.1953125 157.10546875 C9.76249533 159.68854815 6.94015245 161.86356531 4.1953125 164.10546875 C2.88820313 165.18441406 2.88820313 165.18441406 1.5546875 166.28515625 C-17.37922412 181.23570395 -39.77804221 188.55541511 -63.8046875 188.48046875 C-64.83264938 188.47915451 -64.83264938 188.47915451 -65.88137817 188.47781372 C-91.62154559 188.36937324 -112.69192777 180.26611032 -132.8046875 164.10546875 C-133.92230469 163.32236328 -133.92230469 163.32236328 -135.0625 162.5234375 C-135.92488281 161.82154297 -135.92488281 161.82154297 -136.8046875 161.10546875 C-136.8046875 160.44546875 -136.8046875 159.78546875 -136.8046875 159.10546875 C-137.35640625 158.904375 -137.908125 158.70328125 -138.4765625 158.49609375 C-141.7316372 156.55178739 -143.77369937 153.81643599 -146.0546875 150.85546875 C-146.77712646 149.92263062 -146.77712646 149.92263062 -147.51416016 148.97094727 C-165.75895221 124.9000617 -171.89991898 96.26115518 -168.34375 66.4765625 C-165.07828275 47.13347118 -156.58923946 29.90594807 -143.8046875 15.10546875 C-143.14855469 14.3165625 -142.49242187 13.52765625 -141.81640625 12.71484375 C-138.30829619 8.56031175 -138.30829619 8.56031175 -136.8046875 7.10546875 C-136.1446875 7.10546875 -135.4846875 7.10546875 -134.8046875 7.10546875 C-134.3096875 5.62046875 -134.3096875 5.62046875 -133.8046875 4.10546875 C-97.880636 -29.29160575 -38.0443997 -29.84976617 0 0 Z M-109.8046875 29.10546875 C-110.49046875 29.71003906 -111.17625 30.31460938 -111.8828125 30.9375 C-117.29234528 36.00635609 -121.12821489 41.69636125 -124.8046875 48.10546875 C-125.28035156 48.93175781 -125.75601562 49.75804687 -126.24609375 50.609375 C-135.1924924 67.24700593 -135.9770146 87.18852769 -130.8046875 105.10546875 C-127.67634725 114.17987415 -123.10868424 122.14947364 -117.8046875 130.10546875 C-117.1446875 130.10546875 -116.4846875 130.10546875 -115.8046875 130.10546875 C-115.5571875 130.68554688 -115.3096875 131.265625 -115.0546875 131.86328125 C-109.08443115 142.57242857 -94.21117917 149.39257047 -82.984375 153.015625 C-65.79732362 157.64622155 -47.86614983 155.96726569 -31.9921875 147.91796875 C-25.7801143 144.33049647 -19.92920677 140.1478314 -14.8046875 135.10546875 C-14.8046875 134.44546875 -14.8046875 133.78546875 -14.8046875 133.10546875 C-14.1446875 133.10546875 -13.4846875 133.10546875 -12.8046875 133.10546875 C-11.27974895 131.24199384 -9.90837173 129.40165189 -8.5546875 127.41796875 C-8.15427246 126.83144531 -7.75385742 126.24492187 -7.34130859 125.640625 C4.56173865 107.75021597 7.89838148 87.89563339 4.1953125 66.85546875 C1.28411142 55.22439652 -4.73860231 43.96268383 -12.8046875 35.10546875 C-13.48144531 34.34878906 -14.15820312 33.59210938 -14.85546875 32.8125 C-26.24561854 20.73449036 -42.0887196 12.43416136 -58.85546875 11.8046875 C-78.42702653 11.5857745 -94.89801469 15.78768548 -109.8046875 29.10546875 Z " fill="#013A51" transform="translate(1407.8046875,105.89453125)"/>
<path d="M0 0 C94.43835616 0 94.43835616 0 112.21875 15.99609375 C122.7802616 27.05021317 125.52286306 40.50239199 125.24609375 55.3828125 C124.16363983 71.29316691 118.34917517 82.92715258 107 94 C105.35180953 95.35610609 103.68987797 96.69621014 102 98 C102.75023437 98.40089844 103.50046875 98.80179687 104.2734375 99.21484375 C117.37487202 106.49158509 128.20463682 115.52383093 132.875 130.25 C137.1161069 145.81862027 135.06643382 162.80125999 127.5 177 C125.57480495 180.21655665 123.56940608 183.2533935 121 186 C120.34 186 119.68 186 119 186 C119 186.66 119 187.32 119 188 C86.90279543 215.11189407 36.57671679 205 0 205 C0 137.35 0 69.7 0 0 Z M35 33 C35 50.49 35 67.98 35 86 C40.589375 86.0825 46.17875 86.165 51.9375 86.25 C54.55546509 86.30462402 54.55546509 86.30462402 57.22631836 86.36035156 C66.50080517 86.47477158 73.8057779 86.19059274 81.3046875 80.140625 C87.36287814 72.84668403 90.52915035 65.20104608 89.8203125 55.5546875 C88.73118869 48.28645312 85.83111494 43.11080201 80.109375 38.46484375 C70.75305139 32.14748352 60.85651039 32.74710324 50 32.875 C45.05 32.91625 40.1 32.9575 35 33 Z M35 120 C35 137.49 35 154.98 35 173 C43.8171875 173.0928125 43.8171875 173.0928125 52.8125 173.1875 C54.64401611 173.21481201 56.47553223 173.24212402 58.36254883 173.27026367 C70.92018605 173.38047881 82.07051417 172.55790316 92 164 C97.16022713 158.65152424 99.93542914 153.24868887 100.02734375 145.77734375 C99.60347927 139.44111323 97.84865864 133.90912545 93.34375 129.30859375 C84.80751168 122.32916938 74.29570645 119.83149556 63.515625 119.90234375 C62.43063721 119.90385437 62.43063721 119.90385437 61.32373047 119.90539551 C58.63247076 119.91061113 55.94123372 119.92457238 53.25 119.9375 C47.2275 119.958125 41.205 119.97875 35 120 Z " fill="#013A51" transform="translate(1075,87)"/>
<path d="M0 0 C1.28165039 0.01015137 2.56330078 0.02030273 3.88378906 0.03076172 C24.13073947 0.36297446 44.67837892 6.03558595 61.6875 17.375 C61.08070291 21.20597267 59.93941853 24.22467736 58.18359375 27.67578125 C57.69052734 28.65224609 57.19746094 29.62871094 56.68945312 30.63476562 C55.91504883 32.14586914 55.91504883 32.14586914 55.125 33.6875 C54.34479492 35.22760742 54.34479492 35.22760742 53.54882812 36.79882812 C52.26709638 39.3270146 50.97983939 41.852224 49.6875 44.375 C46.33759219 43.78546333 43.37673029 42.95613843 40.24609375 41.6328125 C39.42069092 41.29000244 38.59528809 40.94719238 37.74487305 40.59399414 C36.88031494 40.23297607 36.01575684 39.87195801 35.125 39.5 C18.24547339 32.59952619 2.52439579 28.84556231 -15.3125 34.375 C-21.5949171 37.0329457 -25.72921742 41.02212052 -28.3125 47.375 C-30.06673001 54.22848245 -29.20958624 59.02369555 -26.3125 65.375 C-25.9825 66.365 -25.6525 67.355 -25.3125 68.375 C-24.6525 68.375 -23.9925 68.375 -23.3125 68.375 C-23.3125 69.035 -23.3125 69.695 -23.3125 70.375 C-22.74015625 70.643125 -22.1678125 70.91125 -21.578125 71.1875 C-19.23709119 72.41452462 -17.21966861 73.84883989 -15.0625 75.375 C-5.57850647 81.48917618 5.25892221 85.18533711 15.6875 89.375 C34.2669063 96.84646211 50.5778636 106.34139862 59.00390625 125.34375 C64.17189192 140.18145103 64.16747452 159.96459154 57.6875 174.375 C55.58140514 178.22819628 53.27658544 181.83077631 50.6875 185.375 C50.16285156 186.13554687 49.63820313 186.89609375 49.09765625 187.6796875 C48.39962891 188.51886719 48.39962891 188.51886719 47.6875 189.375 C47.0275 189.375 46.3675 189.375 45.6875 189.375 C45.6875 190.035 45.6875 190.695 45.6875 191.375 C25.85756553 208.45287132 3.75769906 209.73642803 -21.3125 208.375 C-26.48647705 207.93510721 -31.33991915 206.87475776 -36.3125 205.375 C-36.98539062 205.18695801 -37.65828125 204.99891602 -38.3515625 204.80517578 C-50.51595502 201.37985289 -66.20838742 196.47911258 -75.3125 187.375 C-74.97749824 183.35540677 -73.42879269 180.49039854 -71.37109375 177.07421875 C-70.49614258 175.60952148 -70.49614258 175.60952148 -69.60351562 174.11523438 C-68.99185547 173.10783203 -68.38019531 172.10042969 -67.75 171.0625 C-67.13447266 170.03576172 -66.51894531 169.00902344 -65.88476562 167.95117188 C-64.36713946 165.42179494 -62.84288935 162.89666788 -61.3125 160.375 C-57.48946118 161.06088184 -54.95603693 162.00427704 -51.6875 164.125 C-35.98848743 173.81803878 -17.32876052 180.10638192 1.25 176.75 C9.7617282 174.48858144 17.7816853 170.87891703 22.640625 163.3046875 C26.12675208 156.87876669 26.96559478 150.07410298 25.03515625 142.9765625 C20.31368022 131.10194896 9.37460195 125.15520355 -1.84619141 120.27246094 C-5.56685656 118.72615814 -9.30506264 117.22655907 -13.0480957 115.73535156 C-25.24657921 110.8563784 -36.85529221 105.44370928 -47.3125 97.375 C-48.364375 96.611875 -49.41625 95.84875 -50.5 95.0625 C-59.72330329 86.2491213 -65.12986681 74.96848426 -65.48046875 62.203125 C-65.64527827 46.23568458 -63.60210929 31.75640278 -52.3125 19.375 C-51.6525 19.375 -50.9925 19.375 -50.3125 19.375 C-50.3125 18.715 -50.3125 18.055 -50.3125 17.375 C-36.03841517 4.49289153 -18.97053232 -0.21733425 0 0 Z " fill="#013A51" transform="translate(514.3125,85.625)"/>
<path d="M0 0 C13.86 0 27.72 0 42 0 C49.64160633 13.81367299 56.98798356 27.73750893 64.17150879 41.79205322 C69.32647187 51.87245733 74.58610821 61.87700292 80.06176758 71.78808594 C84.26607882 79.41705149 88.1804653 87.17256999 92 95 C92.33 95.66 92.66 96.32 93 97 C97.3013676 89.90274345 101.21404419 82.71740439 104.87695312 75.27734375 C107.3312284 70.30309559 109.88617162 65.39212038 112.5 60.5 C116.37909591 53.22156083 120.10317015 45.87740778 123.76611328 38.48828125 C126.40012865 33.17647186 129.04294067 27.86906592 131.6875 22.5625 C132.23438477 21.46043213 132.78126953 20.35836426 133.34472656 19.22290039 C141.85923501 2.14076499 141.85923501 2.14076499 144 0 C147.10251201 -0.08874135 150.1826812 -0.11518455 153.28515625 -0.09765625 C154.21597519 -0.0962413 155.14679413 -0.09482635 156.1058197 -0.09336853 C159.09141191 -0.08775172 162.07693029 -0.0751964 165.0625 -0.0625 C167.08137913 -0.05748716 169.10025943 -0.05292388 171.11914062 -0.04882812 C176.07945572 -0.03777683 181.03971532 -0.02050095 186 0 C184.89312619 3.53136519 183.76271019 6.72501048 181.828125 9.8828125 C181.41449707 10.56827148 181.00086914 11.25373047 180.57470703 11.95996094 C180.13755371 12.67442383 179.70040039 13.38888672 179.25 14.125 C176.36547976 18.9274139 173.55657018 23.69757573 171.125 28.75 C168.51685148 34.11843903 165.60532355 39.27030934 162.625 44.4375 C157.74218086 52.90885994 152.96406334 61.43383681 148.25 70 C147.9144812 70.60943451 147.5789624 71.21886902 147.23327637 71.84677124 C145.51219421 74.97343121 143.79230283 78.1007438 142.07324219 81.22851562 C139.00316002 86.81422421 135.92820159 92.39724113 132.85095215 97.97900391 C131.93533245 99.64051867 131.02084873 101.3026593 130.10644531 102.96484375 C129.2145752 104.58326172 129.2145752 104.58326172 128.3046875 106.234375 C128.00128448 106.80732803 127.69788147 107.38028107 127.38528442 107.97059631 C125.27854451 111.89468665 122.95648982 115.56360306 120.43994141 119.23999023 C109.00124143 136.63251443 108.04661804 151.19888061 108.57513428 171.31170654 C108.6746708 175.80449543 108.6659983 180.29838134 108.67672729 184.79209137 C108.70430925 191.53226692 108.86401839 198.25725468 109 205 C97.78 205 86.56 205 75 205 C75.09023438 200.46507812 75.18046875 195.93015625 75.2734375 191.2578125 C75.29947859 188.32252259 75.32121608 185.38837275 75.328125 182.453125 C75.33939742 177.82940017 75.36352402 173.20926672 75.48339844 168.58691406 C76.01254527 147.28142546 73.76583543 132.96184447 61.78436279 114.78410339 C58.86948558 110.23608234 56.39496217 105.46153822 53.875 100.6875 C49.40317782 92.45790124 44.76922349 84.32785608 40.09082031 76.21435547 C36.95038864 70.74213759 34.03672098 65.23088227 31.2890625 59.55078125 C29.9738565 56.94826755 28.52576002 54.48425029 27 52 C24.89516342 48.5715033 23.01733321 45.11409712 21.25 41.5 C18.69016229 36.28650855 15.95010742 31.19771553 13.125 26.125 C12.69944824 25.36050537 12.27389648 24.59601074 11.83544922 23.80834961 C9.78064431 20.13360473 7.70296362 16.47457386 5.578125 12.83984375 C5.2054248 12.19966309 4.83272461 11.55948242 4.44873047 10.89990234 C3.43813295 9.17053515 2.41857796 7.44641137 1.3984375 5.72265625 C0 3 0 3 0 0 Z " fill="#013A51" transform="translate(596,87)"/>
</svg>
